<?xml version="1.0" encoding="utf-8"?>
<!-- Generator: Adobe Illustrator 26.0.1, SVG Export Plug-In . SVG Version: 6.00 Build 0)  -->
<svg version="1.1" id="Calque_1" xmlns="http://www.w3.org/2000/svg" xmlns:xlink="http://www.w3.org/1999/xlink" x="0px" y="0px"
	 viewBox="0 0 512 513" style="enable-background:new 0 0 512 513;" xml:space="preserve">
<style type="text/css">
	.st0{fill:#972ac5;}
	.st1{fill:#57727F;}
	.st2{fill:#FFFFFF;}
</style>
<rect x="33.7" y="71.7" class="st0" width="183.7" height="44.6"/>
<rect x="8.7" y="115.2" class="st1" width="493.4" height="326.1"/>
<path class="st2" d="M328.9,281.5c0,40.8-33.1,73.9-73.9,73.9s-73.9-33.1-73.9-73.9s33.1-73.9,73.9-73.9S328.9,240.7,328.9,281.5z
	 M258,221.5l-9.8,7.3c-1.5,1.2-2.5,3-2.5,4.9v2.6c0,2,1.6,3.5,3.6,3.5c0.7,0,1.4-0.2,2-0.6l12.1-8c0.6-0.4,1.3-0.6,2-0.6h0.3
	c1.8,0,3.3,1.5,3.3,3.3c0,0.9-0.3,1.7-1,2.3l-5.7,5.7c-1.7,1.4-3.7,2.9-5.9,3.7l-7.7,2.6c-1.6,0.5-2.8,2.1-2.8,3.9
	c0,1.1-0.4,2.1-1.2,2.9l-5.2,5.2c-1.8,1.8-2.9,4.3-2.9,6.9v1.2c0,4.7,3.9,8.6,8.6,8.6c3.2,0,6.1-1.8,7.5-4.6l1.2-2.3
	c0.7-1.4,2.1-2.3,3.7-2.3c1.3,0,2.5,0.6,3.3,1.6l4.7,6.3c0.6,0.8,1.6,1.3,2.6,1.3c2.4,0,4-2.6,2.9-4.7l-0.3-0.7c-1-2,0-4.5,2.1-5.2
	l6.1-2.1c2.2-0.7,3.7-2.8,3.7-5.1c0-3,2.4-5.4,5.4-5.4h8.5c2.5,0,4.6,2.1,4.6,4.6s-2.1,4.6-4.6,4.6h-6c-2.1,0-4.1,0.8-5.6,2.3
	l-1.4,1.4c-0.6,0.6-1,1.4-1,2.3c0,1.8,1.5,3.3,3.3,3.3h3.3c1.7,0,3.4,0.7,4.6,1.9l1.9,1.9c0.3,0.3,0.8,1.2,0.8,2s-0.5,1.4-0.8,2
	l-2.2,2.2c-1.1,0.8-1.6,2.5-1.6,4s0.6,2.9,1.6,4l5.3,5.3c2.9,2.9,7,4.6,11.1,4.6h1.9c2.1-5.8,3.1-12,3.1-18.5
	C315.1,249.3,289.8,223.1,258,221.5L258,221.5z M307.7,310.4c-1.1-0.8-2.4-1.2-3.8-1.2c-1.7,0-3.4-0.7-4.6-1.9l-4.1-4.1
	c-2-2-5-3.2-8.1-3.2c-2.8,0-5.5-1-7.7-2.8l-7.9-6.6c-3.1-2.9-7.4-4.7-11.8-4.7h-6c-3.7,0-7.2,1.3-10.3,3.4l-7.9,5.3
	c-5.1,3.4-8.2,9.2-8.2,15.4v0.9c0,4.9,1.9,9.6,5.4,13.1l4.6,4.6c2.5,2.5,5.8,3.8,9.2,3.8h6.2c3.8,0,6.9,3.1,6.9,6.9
	c0,0.7,0.1,1.4,0.3,2.1C280.6,339.7,298.2,327.6,307.7,310.4L307.7,310.4z M228.6,236.6l-9.2,9.2c-1.8,1.8-1.8,4.7,0,6.5
	c1.8,1.8,4.7,1.8,6.5,0l9.2-9.2c1.8-1.8,1.8-4.7,0-6.5C233.4,234.8,230.4,234.8,228.6,236.6L228.6,236.6z"/>
</svg>
