<?xml version="1.0" encoding="utf-8"?>
<!-- Generator: Adobe Illustrator 26.0.1, SVG Export Plug-In . SVG Version: 6.00 Build 0)  -->
<svg version="1.1" id="Calque_1" xmlns="http://www.w3.org/2000/svg" xmlns:xlink="http://www.w3.org/1999/xlink" x="0px" y="0px"
	 viewBox="0 0 512 513" style="enable-background:new 0 0 512 513;" xml:space="preserve">
<style type="text/css">
	.st0{fill:#972ac5;}
	.st1{fill:#57727F;}
	.st2{fill:#FFFFFF;}
</style>
<rect x="33.7" y="71.7" class="st0" width="445.5" height="44.6"/>
<rect x="8.7" y="115.2" class="st1" width="493.4" height="326.1"/>
<path class="st2" d="M322.2,241.7l-27-27c-2.2-2.2-7.1-4.2-10.6-4.2h-81c-11.4,0-20.6,9.2-20.6,20.6v102.9
	c0,11.4,9.2,20.6,20.6,20.6h102.9c11.4,0,20.6-9.2,20.6-20.6v-81C327,249.4,325,244.5,322.2,241.7z M255,333.9
	c-11.4,0-20.6-9.2-20.6-20.6s9.2-20.6,20.6-20.6s20.6,9.2,20.6,20.6S266.3,333.9,255,333.9z M285.9,267.1c0,2.8-2.3,5.1-5.1,5.1h-72
	c-2.8,0-5.1-2.3-5.1-5.1v-30.9c0-2.8,2.3-5.1,5.1-5.1h72c2.8,0,5.1,2.3,5.1,5.1V267.1z"/>
</svg>
