<?xml version="1.0" encoding="utf-8"?>
<!-- Generator: Adobe Illustrator 26.0.1, SVG Export Plug-In . SVG Version: 6.00 Build 0)  -->
<svg version="1.1" id="Calque_1" xmlns="http://www.w3.org/2000/svg" xmlns:xlink="http://www.w3.org/1999/xlink" x="0px" y="0px"
	 viewBox="0 0 512 513" style="enable-background:new 0 0 512 513;" xml:space="preserve">
<style type="text/css">
	.st0{fill:#b635ec;}
	.st1{fill:#972ac5;}
	.st2{fill:#FFFFFF;}
</style>
<rect x="33.7" y="71.7" class="st0" width="445.5" height="44.6"/>
<rect x="8.7" y="115.2" class="st1" width="493.4" height="326.1"/>
<path class="st2" d="M288.7,240.3l49.1,7.2c4.1,0.6,7.5,3.5,8.8,7.4c1.3,4,0.2,8.3-2.7,11.2l-35.6,34.9l8.4,50.1
	c0.7,4.1-1,8.3-4.4,10.7c-3.4,2.4-7.9,2.7-11.5,0.8l-43.9-23.4L213,362.7c-3.7,1.9-8.2,1.6-11.6-0.8c-3.4-2.4-5.1-6.6-4.4-10.7
	l8.4-50.1l-35.6-34.9c-2.9-2.9-4-7.2-2.7-11.2c1.3-3.9,4.7-6.8,8.8-7.4l49.1-7.2l22-45.2c1.8-3.8,5.6-6.2,9.8-6.2
	c4.2,0,8,2.4,9.8,6.2L288.7,240.3z"/>
</svg>
