<?xml version="1.0" encoding="utf-8"?>
<!-- Generator: Adobe Illustrator 26.0.1, SVG Export Plug-In . SVG Version: 6.00 Build 0)  -->
<svg version="1.1" id="Calque_1" xmlns="http://www.w3.org/2000/svg" xmlns:xlink="http://www.w3.org/1999/xlink" x="0px" y="0px"
	 viewBox="0 0 512 513" style="enable-background:new 0 0 512 513;" xml:space="preserve">
<style type="text/css">
	.st0{fill:#b734ee;}
	.st1{fill:#972ac5;}
	.st2{fill:#FFFFFF;}
</style>
<rect x="33.7" y="71.7" class="st0" width="183.7" height="44.6"/>
<rect x="8.7" y="115.2" class="st1" width="493.4" height="326.1"/>
<path class="st2" d="M281.3,238.5v82c0,7.5-6.1,13.7-13.7,13.7h-82c-7.5,0-13.7-6.1-13.7-13.7v-82c0-7.5,6.1-13.7,13.7-13.7h82
	C275.2,224.8,281.3,231,281.3,238.5z M336,242.9v73.1c0,7.3-8.3,11.5-14.3,7.3l-31.2-21.5v-44.8l31.2-21.5
	C327.7,231.4,336,235.7,336,242.9z"/>
</svg>
