<?xml version="1.0" encoding="utf-8"?>
<!-- Generator: Adobe Illustrator 26.0.1, SVG Export Plug-In . SVG Version: 6.00 Build 0)  -->
<svg version="1.1" id="Calque_1" xmlns="http://www.w3.org/2000/svg" xmlns:xlink="http://www.w3.org/1999/xlink" x="0px" y="0px"
	 viewBox="0 0 512 513" style="enable-background:new 0 0 512 513;" xml:space="preserve">
<style type="text/css">
	.st0{fill:#972ac5;}
	.st1{fill:#601a7a;}
	.st2{fill:#FFFFFF;}
</style>
<rect x="33.7" y="71.7" class="st0" width="183.7" height="44.6"/>
<rect x="8.7" y="115.2" class="st1" width="493.4" height="326.1"/>
<path class="st2" d="M278.2,218.1l-36.4,127.5c-1.4,4.8-6.4,7.6-11.3,6.3c-4.8-1.4-7.6-6.4-6.3-11.3l36.4-127.5
	c1.4-4.8,6.4-7.6,11.3-6.3C276.8,208.2,279.6,213.3,278.2,218.1L278.2,218.1z M307.7,241l31.9,31.9c3.6,3.6,3.6,9.3,0,12.9
	l-31.9,31.9c-3.6,3.6-9.3,3.6-12.9,0s-3.6-9.3,0-12.9l25.4-25.4l-25.4-25.4c-3.6-3.6-3.6-9.3,0-12.9S304.2,237.5,307.7,241
	L307.7,241z M207.6,253.9l-25.4,25.4l25.4,25.4c3.6,3.6,3.6,9.3,0,12.9s-9.3,3.6-12.9,0l-31.9-31.9c-3.6-3.6-3.6-9.3,0-12.9
	l31.9-31.9c3.6-3.6,9.3-3.6,12.9,0S211.1,250.3,207.6,253.9L207.6,253.9z"/>
</svg>
