<?xml version="1.0" encoding="iso-8859-1"?>
<!-- Generator: Adobe Illustrator 16.0.0, SVG Export Plug-In . SVG Version: 6.00 Build 0)  -->
<!DOCTYPE svg PUBLIC "-//W3C//DTD SVG 1.1//EN" "http://www.w3.org/Graphics/SVG/1.1/DTD/svg11.dtd">
<svg version="1.1"
	 id="svg2" xmlns:dc="http://purl.org/dc/elements/1.1/" xmlns:inkscape="http://www.inkscape.org/namespaces/inkscape" xmlns:sodipodi="http://sodipodi.sourceforge.net/DTD/sodipodi-0.dtd" xmlns:svg="http://www.w3.org/2000/svg" xmlns:rdf="http://www.w3.org/1999/02/22-rdf-syntax-ns#" xmlns:cc="http://creativecommons.org/ns#" inkscape:version="0.91 r" sodipodi:docname="firefox-nightly-icon.svg"
	 xmlns="http://www.w3.org/2000/svg" xmlns:xlink="http://www.w3.org/1999/xlink" x="0px" y="0px" width="513px" height="512px"
	 viewBox="0 0 513 512" style="enable-background:new 0 0 513 512;" xml:space="preserve">
<sodipodi:namedview  id="namedview4" borderopacity="1" pagecolor="#ffffff" bordercolor="#666666" objecttolerance="10" gridtolerance="10" guidetolerance="10" showgrid="false" inkscape:zoom="0.70710678" inkscape:cx="135.75051" inkscape:cy="432.52506" inkscape:pageopacity="0" inkscape:window-height="716" inkscape:pageshadow="2" inkscape:current-layer="svg2" inkscape:window-width="921" inkscape:window-x="197" inkscape:window-y="24" inkscape:window-maximized="0">
	</sodipodi:namedview>
<linearGradient id="path3229_1_" gradientUnits="userSpaceOnUse" x1="246.3677" y1="456.623" x2="246.3677" y2="3.0869" gradientTransform="matrix(1 0 0 -1 8.3398 488.04)">
	<stop  offset="0" style="stop-color:#003763"/>
	<stop  offset="1" style="stop-color:#231F20"/>
</linearGradient>
<path id="path3229" inkscape:connector-curvature="0" sodipodi:nodetypes="ssssssssssssssssssss" style="fill:url(#path3229_1_);" d="
	M236.39,484.65c-31.949-3.343-57.226-10.375-83.156-23.146c-24.163-11.896-42.867-25.597-62.379-45.686
	C56.152,380.1,35.561,338.1,28.342,288.316c-2.243-15.467-2.243-46.026,0-61.493c3.176-21.899,9.184-42.754,18.183-63.115
	c2.482-5.615,22.14-27.469,31.497-50.438c10.239-25.135,2.572,4.643,3.353,4.643c0.769,0-0.946-20.288,1.368-13.544
	c2.147,6.262,6.208,0.275,6.679,0.759c0.493,0.506,10.413-13.037,14.007-16.303c26.471-24.058,61.322-42.55,96.293-51.095
	c20.718-5.062,31.614-6.313,54.983-6.313c24.061,0,35.588,1.392,57.025,6.887c38.493,9.866,75.61,31.139,104.423,59.846
	c36.76,36.63,57.762,79.245,65.394,132.691c1.815,12.713,1.538,44.765-0.505,58.407c-4.56,30.45-13.56,56.822-27.896,81.738
	c-34.838,60.549-94.021,100.938-163.793,111.779C279.371,484.321,244.937,485.544,236.39,484.65z"/>
<path id="path3045" style="fill:#B1B1AA;" d="M-259.857,29.595c-1.237-0.497-2.25-1.444-2.25-2.103c0-0.659-0.289-0.91-0.643-0.557
	c-0.975,0.975,1.666,3.7,3.515,3.627C-258.133,30.521-258.334,30.208-259.857,29.595L-259.857,29.595z"/>
<linearGradient id="path2991_1_" gradientUnits="userSpaceOnUse" x1="16.0649" y1="210.042" x2="482.1201" y2="210.042" gradientTransform="matrix(1 0 0 -1 8.3398 488.04)">
	<stop  offset="0" style="stop-color:#580E06"/>
	<stop  offset="1" style="stop-color:#ED1F24"/>
</linearGradient>
<path id="path2991" inkscape:connector-curvature="0" style="fill:url(#path2991_1_);" d="M241.678,488.985
	c-73.239-5.022-138.906-43.021-179.109-103.646c-8.346-12.586-20.475-36.603-25.152-49.807
	c-9.729-27.464-12.993-47.433-13.012-79.589c-0.023-40.051,4.283-59.513,22.954-103.723c4.89-11.579,14.817-35.718,22.06-53.642
	c7.243-17.924,13.43-32.334,13.749-32.023c0.319,0.312,4.04,10.355,8.268,22.32l7.686,21.754l3.062-0.349
	c1.684-0.192,10.892-0.408,20.462-0.479c15.303-0.115,18.186,0.135,23.907,2.072c3.578,1.211,7.13,1.962,7.893,1.668
	c0.763-0.293,6.294-8.116,12.292-17.384c5.997-9.268,11.233-16.85,11.634-16.85c0.402,0,2.652,13.5,5,30
	c2.447,17.196,4.816,30.537,5.55,31.259c1.623,1.594,48.081,10.718,49.188,9.66c0.87-0.83,22.807,3.28,24.023,4.501
	c0.393,0.394-0.273,1.492-1.482,2.442c-1.207,0.95-5.498,4.467-9.532,7.816c-8.16,6.77-16.867,9.015-16.867,9.015L221,180
	c0,0-15.784,7.898-15.823,13.443l-0.071,10.081l11.156,9.521c6.136,5.237,11.189,9.811,11.229,10.164
	c0.041,0.354-9.484,6.081-21.166,12.728c-25.404,14.455-30.603,18.176-35,25.051c-11.608,18.146-9.004,42.17,6.23,57.453
	c18.575,18.636,49.291,17.816,66.509-1.771c6.474-7.362,8.783-12.55,11.609-26.067l0.59-2.824c0,0,5.336-14.029,19.037-13.779
	c13.701,0.25,19.035,13.779,19.035,13.779l-0.724,6.771c-4.043,37.888-33.01,68.683-70.397,74.847
	c-4.823,0.795-5.066,3.215-0.512,5.104c5.758,2.39,22.196,4.679,33.568,4.679c33.31,0,62.632-12.304,86.576-36.326
	c24.115-24.192,36.214-53.404,36.42-87.936c0.1-16.176-4.578-36.767-11.392-50.164c-1.248-2.456-2.059-4.676-1.8-4.936
	c0.638-0.64,11.043,11.757,15.918,18.966c4.968,7.346,10.431,18.244,13.479,26.891c3.019,8.553,3.931,9.81,5.777,7.954
	c0.903-0.906,1.797-6.439,2.563-15.866c4.383-54.027-16.259-112.353-53.8-152.036c-3.873-4.095-6.453-7.445-5.729-7.445
	c1.737,0,12.729,6.139,23.515,13.131c28.791,18.671,52.866,45.743,68.462,76.984c8.408,16.842,10.506,13.504,5.793-9.218
	c-4.782-23.063-17.229-54.886-28.833-73.703l-2.846-4.615l4.222,3.354c5.063,4.021,16.707,16.416,25.047,26.654
	c9.844,12.082,18.974,26.515,26.811,42.38c15.828,32.044,22.799,59.953,23.878,95.606c1.222,40.329-6.15,75.424-23.165,110.297
	c-30.391,62.283-86.086,107.089-153.839,123.752C292,488.146,264.045,490.52,241.678,488.985L241.678,488.985z"/>
<path id="path2989" inkscape:connector-curvature="0" sodipodi:nodetypes="sssssss" d="M240.495,162.141
	c-2.646-8.706-2.86-10.67-2.083-12.116c0.514-0.956,22.511,2.618,23.796,4.758c0.285,0.476-0.301,1.461-1.481,2.442
	c-1.311,1.086-5.294,4.554-9.208,7.802c-3.914,3.248-7.656,5.552-7.981,5.552C243.21,170.578,241.937,166.882,240.495,162.141
	L240.495,162.141z"/>
</svg>
