<?xml version="1.0" encoding="utf-8"?>
<!-- Generator: Adobe Illustrator 26.0.1, SVG Export Plug-In . SVG Version: 6.00 Build 0)  -->
<svg version="1.1" id="Calque_1" xmlns="http://www.w3.org/2000/svg" xmlns:xlink="http://www.w3.org/1999/xlink" x="0px" y="0px"
	 viewBox="0 0 512 513" style="enable-background:new 0 0 512 513;" xml:space="preserve">
<style type="text/css">
	.st0{fill:#02a0ee;}
	.st1{fill:#57727F;}
	.st2{fill:#FFFFFF;stroke:#000000;stroke-miterlimit:10;}
</style>
<rect x="33.7" y="71.7" class="st0" width="183.7" height="44.6"/>
<rect x="8.7" y="115.2" class="st1" width="493.4" height="326.1"/>
<path class="st2" d="M217.3,260.9v-13.2c0-21.9,17.8-39.7,39.7-39.7s39.7,17.8,39.7,39.7v13.2h4.4c9.7,0,17.6,7.9,17.6,17.6v52.9
	c0,9.7-7.9,17.6-17.6,17.6h-88.1c-9.7,0-17.6-7.9-17.6-17.6v-52.9c0-9.7,7.9-17.6,17.6-17.6H217.3z M235,260.9H279v-13.2
	c0-12.2-9.9-22-22-22s-22,9.9-22,22V260.9z"/>
</svg>
