<?xml version="1.0" encoding="utf-8"?>
<!-- Generator: Adobe Illustrator 26.0.1, SVG Export Plug-In . SVG Version: 6.00 Build 0)  -->
<svg version="1.1" id="Calque_1" xmlns="http://www.w3.org/2000/svg" xmlns:xlink="http://www.w3.org/1999/xlink" x="0px" y="0px"
	 viewBox="0 0 512 513" style="enable-background:new 0 0 512 513;" xml:space="preserve">
<style type="text/css">
	.st0{fill:#1996da;}
	.st1{fill:#57727F;}
	.st2{fill:#FFFFFF;}
</style>
<rect x="33.7" y="71.7" class="st0" width="183.7" height="44.6"/>
<rect x="8.7" y="115.2" class="st1" width="493.4" height="326.1"/>
<path class="st2" d="M282.4,249.5l40.8,6c3.4,0.5,6.2,2.9,7.3,6.1c1.1,3.3,0.2,6.9-2.2,9.3l-29.6,29l7,41.6c0.6,3.4-0.8,6.9-3.7,8.9
	c-2.8,2-6.5,2.3-9.6,0.7L256,331.7l-36.4,19.5c-3.1,1.6-6.8,1.4-9.6-0.7c-2.8-2-4.2-5.5-3.6-8.9l7-41.6l-29.6-29
	c-2.4-2.4-3.3-6-2.2-9.3c1.1-3.3,3.9-5.7,7.3-6.1l40.8-6l18.3-37.6c1.5-3.1,4.7-5.1,8.2-5.1c3.5,0,6.7,2,8.2,5.1L282.4,249.5z"/>
</svg>
