<?xml version="1.0" encoding="utf-8"?>
<!-- Generator: Adobe Illustrator 26.0.1, SVG Export Plug-In . SVG Version: 6.00 Build 0)  -->
<svg version="1.1" id="Calque_1" xmlns="http://www.w3.org/2000/svg" xmlns:xlink="http://www.w3.org/1999/xlink" x="0px" y="0px"
	 viewBox="0 0 512 513" style="enable-background:new 0 0 512 513;" xml:space="preserve">
<style type="text/css">
	.st0{fill:#02a0ee;}
	.st1{fill:#57727F;}
	.st2{fill:#FFFFFF;}
</style>
<rect x="33.7" y="71.7" class="st0" width="445.5" height="44.6"/>
<rect x="8.7" y="115.2" class="st1" width="493.4" height="326.1"/>
<path class="st2" d="M321.4,285.7H188.6c-8.5,0-15.3,6.9-15.3,15.3v30.6c0,8.5,6.9,15.3,15.3,15.3h132.8c8.5,0,15.3-6.9,15.3-15.3
	V301C336.7,292.6,329.9,285.7,321.4,285.7z M275.4,326.6c-5.6,0-10.2-4.6-10.2-10.2s4.6-10.2,10.2-10.2c5.6,0,10.2,4.6,10.2,10.2
	S281,326.6,275.4,326.6z M306.1,326.6c-5.6,0-10.2-4.6-10.2-10.2s4.6-10.2,10.2-10.2c5.6,0,10.2,4.6,10.2,10.2
	S311.7,326.6,306.1,326.6z M321.4,204H188.6c-8.5,0-15.3,6.9-15.3,15.3v61.4c4.3-3.2,9.6-5.2,15.3-5.2h132.8c5.8,0,11,2,15.3,5.2
	v-61.4C336.7,210.9,329.9,204,321.4,204z"/>
</svg>
