<?xml version="1.0" encoding="utf-8"?>
<!-- Generator: Adobe Illustrator 26.0.1, SVG Export Plug-In . SVG Version: 6.00 Build 0)  -->
<svg version="1.1" id="Calque_1" xmlns="http://www.w3.org/2000/svg" xmlns:xlink="http://www.w3.org/1999/xlink" x="0px" y="0px"
	 viewBox="0 0 512 513" style="enable-background:new 0 0 512 513;" xml:space="preserve">
<style type="text/css">
	.st0{fill:#0dcfd9;}
	.st1{fill:#57727F;}
	.st2{fill:#FFFFFF;}
</style>
<rect x="33.7" y="71.7" class="st0" width="183.7" height="44.6"/>
<rect x="8.7" y="115.2" class="st1" width="493.4" height="326.1"/>
<path class="st2" d="M236.2,216h37.6c6.3,0,11.9,4,13.9,10l3.2,9.5h22.8c10.8,0,19.6,8.8,19.6,19.6v78.3c0,10.8-8.8,19.6-19.6,19.6
	H196.3c-10.8,0-19.6-8.8-19.6-19.6v-78.3c0-10.8,8.8-19.6,19.6-19.6h22.8l3.2-9.5C224.3,220,229.9,216,236.2,216L236.2,216z
	 M255,323.6c16.2,0,29.4-13.1,29.4-29.4c0-16.5-13.1-29.4-29.4-29.4c-16.5,0-29.4,12.9-29.4,29.4C225.6,310.5,238.5,323.6,255,323.6
	z"/>
</svg>
