<?xml version="1.0" encoding="utf-8"?>
<!-- Generator: Adobe Illustrator 26.0.1, SVG Export Plug-In . SVG Version: 6.00 Build 0)  -->
<svg version="1.1" id="Calque_1" xmlns="http://www.w3.org/2000/svg" xmlns:xlink="http://www.w3.org/1999/xlink" x="0px" y="0px"
	 viewBox="0 0 512 513" style="enable-background:new 0 0 512 513;" xml:space="preserve">
<style type="text/css">
	.st0{fill:#0dcfd9;}
	.st1{fill:#57727F;}
	.st2{fill:#FFFFFF;}
</style>
<rect x="33.7" y="71.7" class="st0" width="183.7" height="44.6"/>
<rect x="8.7" y="115.2" class="st1" width="493.4" height="326.1"/>
<path class="st2" d="M205.4,265.2h-2.8c-2.5,0-4.4,2-4.4,4.4v4.4c0,2.5,2,4.4,4.2,4.4h4.4c-0.1,12-1.5,24-4.4,35.6H238
	c-2.9-11.6-4.4-23.6-4.4-35.6h4.2c2.5,0,4.4-2,4.4-4.4l0.5-4.4c0-2.5-2-4.4-4.2-4.4h-2.8l9.4-25.1c-0.1-0.5,0-1.3,0-1.5
	c0-2.5-2.1-4.5-4.4-4.5h-15.8v-8.9h4.4c2.5,0,4.4-2,4.4-4.4s-2-4.4-4.4-4.4h-4.4l0-4.4c0-2.5-2-4.4-4.4-4.4s-4.4,2-4.4,4.4v4.4h-4.4
	c-2.5,0-4.4,2-4.4,4.4s2,4.4,4.4,4.4h4.4v8.9h-15.8c-2.4,0-4.5,1.9-4.5,4.4c0,0.5,0.1,1.1,0.3,1.6L205.4,265.2z M279.3,291.2
	l-0.9,22.9h35.3l-0.9-22.9l6.8-5.8c2-1.7,3.2-4.2,3.2-6.8v-16.3c0-0.9-0.7-1.7-1.9-1.7h-7.3c-0.9,0-1.7,0.7-1.7,1.7v7.2h-6.9v-7.2
	c0.3-0.9-0.5-1.7-1.4-1.7h-14.9c-0.9,0-1.7,0.7-1.7,1.7v7.2H280v-7.2c0-0.9-0.7-1.7-1.7-1.7H271c-1,0-1.7,0.7-1.7,1.7v16.3
	c0,2.6,1.1,5.1,3.2,6.8L279.3,291.2z M291.6,291.8c0-2.5,2-4.4,4.4-4.4s4.4,2,4.4,4.4v8.9h-8.9V291.8z M253.5,335.1l-6.4-3.2v-4.4
	c0-2.5-2-4.4-4.4-4.4h-44.5c-2.5,0-4.4,2-4.4,4.4v4.4l-6.4,3.2c-1.5,0.7-2.5,2.3-2.5,4v6.1c0,2.5,2,4.4,4.4,4.4h62.3
	c2.5,0,4.4-2,4.4-4.4v-6.2C256,337.4,255.1,335.9,253.5,335.1z M324.7,335.1l-6.4-3.2v-4.4c0-2.5-2-4.4-4.4-4.4h-35.6
	c-2.5,0-4.4,2-4.4,4.4v4.4l-6.4,3.2c-1.5,0.7-2.5,2.3-2.5,4v6.1c0,2.5,2,4.4,4.4,4.4h53.4c2.5,0,4.4-2,4.4-4.4v-6.2
	C327.2,337.4,326.2,335.9,324.7,335.1z"/>
</svg>
