<?xml version="1.0" encoding="utf-8"?>
<!-- Generator: Adobe Illustrator 26.0.1, SVG Export Plug-In . SVG Version: 6.00 Build 0)  -->
<svg version="1.1" id="Calque_1" xmlns="http://www.w3.org/2000/svg" xmlns:xlink="http://www.w3.org/1999/xlink" x="0px" y="0px"
	 viewBox="0 0 512 513" style="enable-background:new 0 0 512 513;" xml:space="preserve">
<style type="text/css">
	.st0{fill:#1996da;}
	.st1{fill:#0ba9ff;}
	.st2{fill:#FFFFFF;}
</style>
<rect x="33.7" y="71.7" class="st0" width="183.7" height="44.6"/>
<rect x="8.7" y="115.2" class="st1" width="493.4" height="326.1"/>
<path class="st2" d="M322.5,311h-40.3l-13.7,13.7c-3.6,3.6-8.5,5.7-13.7,5.7c-5.2,0-10-2-13.7-5.7L227.5,311h-40.3
	c-5.3,0-9.7,4.3-9.7,9.7v29c0,5.3,4.3,9.7,9.7,9.7h135.4c5.3,0,9.7-4.3,9.7-9.7v-29C332.2,315.3,327.9,311,322.5,311z M308,342.4
	c-4,0-7.3-3.3-7.3-7.3c0-4,3.3-7.3,7.3-7.3c4,0,7.3,3.3,7.3,7.3C315.3,339.2,312,342.4,308,342.4z M248,317.8
	c1.9,1.9,4.4,2.8,6.8,2.8c2.5,0,4.9-0.9,6.8-2.8l38.7-38.7c3.8-3.8,3.8-9.9,0-13.7c-3.8-3.8-9.9-3.8-13.7,0l-22.2,22.2v-73.4
	c0-5.3-4.3-9.7-9.7-9.7c-5.3,0-9.7,4.3-9.7,9.7v73.4L223,265.5c-3.8-3.8-9.9-3.8-13.7,0c-3.8,3.8-3.8,9.9,0,13.7L248,317.8z"/>
</svg>
