<?xml version="1.0" encoding="utf-8"?>
<!-- Generator: Adobe Illustrator 26.0.1, SVG Export Plug-In . SVG Version: 6.00 Build 0)  -->
<svg version="1.1" id="Calque_1" xmlns="http://www.w3.org/2000/svg" xmlns:xlink="http://www.w3.org/1999/xlink" x="0px" y="0px"
	 viewBox="0 0 512 513" style="enable-background:new 0 0 512 513;" xml:space="preserve">
<style type="text/css">
	.st0{fill:#02a0ee;}
	.st1{fill:#0984c1;}
	.st2{fill:#FFFFFF;}
</style>
<rect x="33.7" y="71.7" class="st0" width="183.7" height="44.6"/>
<rect x="8.7" y="115.2" class="st1" width="493.4" height="326.1"/>
<path class="st2" d="M323,277.4c0,4.3-3.6,7.7-7.7,7.7h-7.7l0.2,38.6c0,0.7,0,1.3-0.1,2v3.9c0,5.3-4.3,9.6-9.6,9.6h-3.9
	c-0.3,0-0.5-0.2-0.8,0c-0.3-0.2-0.7,0-1,0h-13.6c-5.3,0-9.6-4.3-9.6-9.6v-21.2c0-4.3-3.4-7.7-7.7-7.7h-15.4c-4.3,0-7.7,3.4-7.7,7.7
	v21.2c0,5.3-4.3,9.6-9.6,9.6H215c-0.4,0-0.7,0-1.1,0c-0.3,0-0.6,0-0.9,0h-3.9c-5.3,0-9.6-4.3-9.6-9.6v-27c0-0.2,0-0.5,0-0.7v-16.8
	h-7.7c-4.3,0-7.7-3.4-7.7-7.7c0-2.2,0.7-4.1,2.4-5.8l61.8-53.9c1.7-1.7,3.6-1.9,5.3-1.9s3.6,0.5,5.1,1.7l61.6,54.1
	C322.2,273.3,323.2,275.2,323,277.4L323,277.4z"/>
</svg>
