<?xml version="1.0" encoding="utf-8"?>
<!-- Generator: Adobe Illustrator 26.0.1, SVG Export Plug-In . SVG Version: 6.00 Build 0)  -->
<svg version="1.1" id="Calque_1" xmlns="http://www.w3.org/2000/svg" xmlns:xlink="http://www.w3.org/1999/xlink" x="0px" y="0px"
	 viewBox="0 0 512 513" style="enable-background:new 0 0 512 513;" xml:space="preserve">
<style type="text/css">
	.st0{fill:#1793D1;}
	.st1{fill:#0d6e9f;}
	.st2{fill:#FFFFFF;}
</style>
<rect x="33.7" y="71.7" class="st0" width="183.7" height="44.6"/>
<rect x="9.3" y="115.2" class="st1" width="493.4" height="326.1"/>
<path class="st2" d="M329.1,216.8h-117c-8.1,0-14.6,6.5-14.6,14.6v78c0,8.1,6.5,14.6,14.6,14.6h117c8.1,0,14.6-6.5,14.6-14.6v-78
	C343.8,223.3,337.2,216.8,329.1,216.8z M236.2,236.2c5.4,0,9.8,4.4,9.8,9.8s-4.1,9.8-9.8,9.8c-5.4,0-9.8-4.4-9.8-9.8
	S231.1,236.2,236.2,236.2z M318.8,301.9c-0.9,1.6-2.5,2.6-4.3,2.6h-87.8c-1.8,0-3.5-1-4.3-2.7c-0.8-1.6-0.7-3.6,0.4-5.1l21.3-29.2
	c0.9-1.3,2.4-2,3.9-2c1.6,0,3,0.7,3.9,2l6.8,9.3l19.1-28.7c0.6-1.3,2.2-2.2,4-2.2c1.6,0,3.2,0.8,4.1,2.2l32.5,48.8
	C319.6,298.4,319.6,300.3,318.8,301.9z M307.2,338.6H204.8c-12.1,0-21.9-9.8-21.9-21.9v-73.1c0-4-3.3-7.3-7.3-7.3s-7.3,3.3-7.3,7.3
	v73.1c0,20.2,16.4,36.6,36.6,36.6h102.4c4,0,7.3-3.3,7.3-7.3S311.2,338.6,307.2,338.6z"/>
</svg>
