<?xml version="1.0" encoding="utf-8"?>
<!-- Generator: Adobe Illustrator 26.0.1, SVG Export Plug-In . SVG Version: 6.00 Build 0)  -->
<svg version="1.1" id="Calque_1" xmlns="http://www.w3.org/2000/svg" xmlns:xlink="http://www.w3.org/1999/xlink" x="0px" y="0px"
	 viewBox="0 0 512 513" style="enable-background:new 0 0 512 513;" xml:space="preserve">
<style type="text/css">
	.st0{fill:#ff9833;}
	.st1{fill:#fd7d00;}
	.st2{fill:#FFFFFF;}
</style>
<rect x="33.7" y="71.7" class="st0" width="183.7" height="44.6"/>
<rect x="8.7" y="115.2" class="st1" width="493.4" height="326.1"/>
<path class="st2" d="M258,353c-41.1,0-74.5-33.4-74.5-74.5S216.9,204,258,204s74.5,33.4,74.5,74.5S299.1,353,258,353z M251,278.5
	c0,2.3,1.2,4.5,3.1,5.6l27.9,18.6c3.2,2.4,7.5,1.5,9.4-1.7c2.4-3.2,1.5-7.5-1.7-9.7L265,274.8v-35.9c0-3.9-3.1-7-7.2-7
	c-3.6,0-7,3.1-7,7L251,278.5z"/>
</svg>
