<?xml version="1.0" encoding="utf-8"?>
<!-- Generator: Adobe Illustrator 26.0.1, SVG Export Plug-In . SVG Version: 6.00 Build 0)  -->
<svg version="1.1" id="Calque_1" xmlns="http://www.w3.org/2000/svg" xmlns:xlink="http://www.w3.org/1999/xlink" x="0px" y="0px"
	 viewBox="0 0 512 513" style="enable-background:new 0 0 512 513;" xml:space="preserve">
<style type="text/css">
	.st0{fill:#ff9833;}
	.st1{fill:#fd7d00;}
	.st2{fill:#FFFFFF;}
</style>
<rect x="33.7" y="71.7" class="st0" width="183.7" height="44.6"/>
<rect x="8.7" y="115.2" class="st1" width="493.4" height="326.1"/>
<path class="st2" d="M336,247.3l-42.5-39c-3.7-3.4-9.6-0.6-9.6,4.7v20.9c-40.3,0.5-72.2,8.5-72.2,46.4c0,15.3,9.9,30.5,20.9,38.4
	c3.4,2.5,8.3-0.6,7-4.6c-11.4-36.1,8.2-44.1,44.3-44.3v20.9c0,5.3,5.9,8.1,9.6,4.7l42.5-39C338.7,254.1,338.7,249.8,336,247.3z
	 M292.9,315.1c-5,0-9,4-9,9v8.8l-90.2,0v-89.9h9c5,0,9-4,9-9c0-5-4-9-9-9h-9c-10,0-18,8.1-18,18v89.9c0,10,8.1,18,18,18l90.2,0
	c10,0,18-8.1,18-18v-8.8C301.9,319.1,297.9,315.1,292.9,315.1z"/>
</svg>
