<?xml version="1.0" encoding="utf-8"?>
<!-- Generator: Adobe Illustrator 26.0.1, SVG Export Plug-In . SVG Version: 6.00 Build 0)  -->
<svg version="1.1" id="Calque_1" xmlns="http://www.w3.org/2000/svg" xmlns:xlink="http://www.w3.org/1999/xlink" x="0px" y="0px"
	 viewBox="0 0 512 513" style="enable-background:new 0 0 512 513;" xml:space="preserve">
<style type="text/css">
	.st0{fill:#ff9833;}
	.st1{fill:#fd7d00;}
	.st2{fill:#FFFFFF;}
</style>
<rect x="33.7" y="71.7" class="st0" width="183.7" height="44.6"/>
<rect x="8.7" y="115.2" class="st1" width="493.4" height="326.1"/>
<path class="st2" d="M315.9,230.6h-56.2l-18.8-18.8h-46.9c-7.8,0-14.1,6.3-14.1,14.1v103.1c0,7.8,6.3,14.1,14.1,14.1h121.9
	c7.8,0,14.1-6.3,14.1-14.1v-84.4C330,236.9,323.7,230.6,315.9,230.6z M278.4,293.6H262V310c-0.3,4.2-3.1,7.3-7,7.3
	c-3.9,0-6.8-3.1-6.8-6.8v-16.9h-16.9c-3.6,0-6.8-2.9-6.8-6.8c0-3.9,3.1-6.8,6.8-6.8h16.4v-16.9c0.3-3.6,3.4-6.8,7.3-6.8
	s6.8,3.1,6.8,6.8v16.7h16.4c4.2,0,7.3,3.1,7.3,7S282.3,293.6,278.4,293.6z"/>
</svg>
