<?xml version="1.0" encoding="utf-8"?>
<!-- Generator: Adobe Illustrator 26.0.1, SVG Export Plug-In . SVG Version: 6.00 Build 0)  -->
<svg version="1.1" id="Calque_1" xmlns="http://www.w3.org/2000/svg" xmlns:xlink="http://www.w3.org/1999/xlink" x="0px" y="0px"
	 viewBox="0 0 512 513" style="enable-background:new 0 0 512 513;" xml:space="preserve">
<style type="text/css">
	.st0{fill:#2778ff;}
	.st1{fill:#57727F;}
	.st2{fill:#FFFFFF;stroke:#000000;stroke-miterlimit:10;}
</style>
<rect x="33.7" y="71.7" class="st0" width="183.7" height="44.6"/>
<rect x="8.7" y="115.2" class="st1" width="493.4" height="326.1"/>
<path class="st2" d="M256,207.5c-42.5,0-77,34.5-77,77s34.5,77,77,77s77-34.5,77-77S298.5,207.5,256,207.5z M248.8,253.2
	c0-4,3.2-7.2,7.2-7.2s7.2,3.2,7.2,7.2v38.5c0,4-3.2,7.2-7.2,7.2s-7.2-3.2-7.2-7.2V253.2z M256,327.8c-5.2,0-9.5-4.2-9.5-9.5
	c0-5.2,4.2-9.5,9.5-9.5c5.2,0,9.5,4.2,9.5,9.5C265.4,323.6,261.2,327.8,256,327.8z"/>
</svg>
