<?xml version="1.0" encoding="utf-8"?>
<!-- Generator: Adobe Illustrator 26.0.1, SVG Export Plug-In . SVG Version: 6.00 Build 0)  -->
<svg version="1.1" id="Calque_1" xmlns="http://www.w3.org/2000/svg" xmlns:xlink="http://www.w3.org/1999/xlink" x="0px" y="0px"
	 viewBox="0 0 38.4 38.4" style="enable-background:new 0 0 38.4 38.4;" xml:space="preserve">
<style type="text/css">
	.st0{fill:#79502e;}
	.st1{fill:#79502e;}
	.st2{fill:#c37837;}
	.st3{fill:#FFFFFF;}
</style>
<g>
	<path class="st0" d="M5.5,6h27.8c0.9,0,1.6,0.7,1.6,1.6v20.8c0,0.9-0.7,1.6-1.6,1.6H5.5c-0.9,0-1.6-0.7-1.6-1.6V7.6
		C3.9,6.7,4.6,6,5.5,6z"/>
	<rect x="5.4" y="9.5" width="28.1" height="17"/>
	<path class="st1" d="M2.1,29.8h34.2c0.8,0,1.4,0.6,1.4,1.4v0.1c0,0.8-0.6,1.4-1.4,1.4H2.1c-0.8,0-1.4-0.6-1.4-1.4v-0.1
		C0.8,30.4,1.4,29.8,2.1,29.8z"/>
	<rect x="0.7" y="29.8" class="st1" width="36.9" height="1.3"/>
	<rect x="14.7" y="29.8" class="st2" width="9" height="0.8"/>
	<circle class="st2" cx="19.3" cy="7.7" r="0.7"/>
	<path class="st1" d="M19.7,7.7c0-0.2-0.2-0.4-0.4-0.4c-0.2,0-0.4,0.2-0.4,0.4s0.2,0.4,0.4,0.4C19.5,8.2,19.7,8,19.7,7.7"/>
	<path class="st3" d="M19.6,7.7c0-0.2-0.1-0.3-0.3-0.3c-0.2,0-0.3,0.1-0.3,0.3C19,7.9,19.1,8,19.3,8C19.5,8,19.6,7.9,19.6,7.7"/>
</g>
<g>
	<g>
		<path class="st3" d="M17.9,13.4l-0.1,1.7v1.1L17,17.7l-0.5,0.8l-0.3,1.3l-0.4,0.8v0.3l-0.2,0.2l-0.9,0.2l0.1,0.8L14.6,23l0.2,0.2
			l2.7,0.7l1.8-0.8l1.6,0.3l0.7,0.5l0.7-0.1l1.9-1.1l0.1-0.3c0,0-1-0.7-0.9-0.9c0.1-0.2,0-1.2,0-1.2c-0.9-0.7-0.6-1.5-0.8-2.2
			l-1.6-2.5l-0.2-2.2l-0.5-0.3l-1,0L17.9,13.4z"/>
		<g>
			<path class="st2" d="M18.5,15.1C18.5,15.2,18.5,15.2,18.5,15.1C18.6,15.2,18.6,15.1,18.5,15.1c0.1-0.1,0.1-0.1,0.2-0.1
				c0,0,0,0-0.1,0C18.6,15.1,18.5,15.1,18.5,15.1z"/>
			<path class="st2" d="M19.1,15.1c0,0,0.1,0,0.1,0c0,0,0.1,0,0.1,0c0,0,0,0,0-0.1C19.3,15,19.2,15,19.1,15.1z"/>
			<path class="st2" d="M24,21.9c0,0,0,0-0.1-0.1c-0.1,0-0.1-0.1-0.1-0.1c0,0-0.1-0.1-0.1-0.1c-0.1-0.1-0.1-0.1-0.1-0.2
				c0-0.1-0.1-0.2-0.1-0.3c0-0.1-0.1-0.9-0.1-1c-0.1,0.1,0,0.8-0.1,1c0,0.2,0,0.3,0.1,0.5c0.1,0.2,0.2,0.3,0.3,0.3
				c0.1,0,0.2,0.1,0.3,0.2s0.1,0.1,0.2,0.2c0,0.1,0,0.1-0.1,0.2c-0.1,0.1-0.3,0.2-0.5,0.2c-0.3,0.1-0.5,0.2-0.7,0.3
				c-0.1,0.1-0.3,0.2-0.6,0.4c-0.2,0.1-0.4,0.2-0.5,0.2c-0.2,0-0.4-0.1-0.5-0.2s-0.2-0.4-0.1-0.6c0.1-0.5,0.1-1,0-1.3
				c-0.1-0.2-0.1-0.4,0-0.6s0.1-0.3,0.2-0.3c0.1,0,0.2,0,0.3,0.2c0,0,0,0.1,0.1,0.1s0.1,0.1,0.1,0.1c0,0,0,0.1,0.1,0.1
				c0,0,0.1,0.1,0.1,0.1c0.1,0,0.1,0,0.2,0c0.1,0,0.3,0,0.4-0.1c0.1-0.1,0.2-0.1,0.3-0.2c0.1-0.1,0.1-0.2,0.2-0.2
				c0.1-0.1,0.1-0.1,0.2-0.1c0,0,0.1-0.1,0.1-0.1c0-0.1,0.1-0.4,0.1-0.4s0-0.3,0-0.5c-0.1-0.4-0.2-0.8-0.4-1.2
				c-0.2-0.4-0.4-0.8-0.6-1.1c-0.4-0.5-0.7-0.9-0.9-1.4c-0.2-0.5-0.2-1-0.2-1.4c0-0.3,0-0.6-0.2-1c-0.1-0.3-0.3-0.6-0.6-0.8
				c-0.2-0.1-0.3-0.2-0.6-0.3c-0.2-0.1-0.5-0.1-0.7-0.1c-0.3,0-0.5,0-0.7,0.1c-0.3,0.2-0.6,0.4-0.7,0.7c-0.1,0.3-0.2,0.6-0.2,1
				c0,0.9,0.1,1.5,0.1,2c-0.1,0.2-0.3,0.6-0.8,1.3c-0.1,0.1-0.2,0.2-0.3,0.3c-0.1,0.1-0.1,0.3-0.2,0.4c0,0.1-0.1,0.3-0.2,0.5
				c-0.1,0.2-0.1,0.4-0.2,0.5c0,0.1-0.1,0.2-0.1,0.3c-0.1,0.1-0.1,0.2-0.2,0.3c0,0.1-0.1,0.2-0.1,0.3c0,0.1,0,0.2,0,0.2
				c0,0.1,0,0.1,0.1,0.1c0.2-0.1,0.4-0.1,0.7,0.3c0.2,0.2,0.6,0.7,1.1,1.6c0,0.1,0.1,0.2,0.1,0.2c0,0.1,0.1,0.2,0.1,0.3
				c0,0.1,0.1,0.3,0,0.4c0,0.1-0.1,0.2-0.1,0.3c-0.1,0.1-0.2,0.2-0.4,0.2c-0.1,0-0.2,0-0.4,0c-0.1,0-0.3-0.1-0.5-0.1
				c-0.2-0.1-0.4-0.1-0.5-0.1c-0.2,0-0.4-0.1-0.6-0.1s-0.5-0.1-0.5-0.1c-0.1,0-0.2-0.1-0.2-0.2c0-0.1,0-0.2,0.1-0.3
				c0.1-0.1,0.1-0.3,0.1-0.3c0,0,0-0.1,0-0.1s0-0.1,0-0.1s0-0.1-0.1-0.1c0-0.1,0-0.1-0.1-0.1c-0.1-0.2-0.1-0.3,0-0.4
				c0-0.1,0.1-0.1,0.3-0.1c0.2,0,0.4,0,0.5-0.1c0.2-0.1,0.4-1,0.3-1.3c0,0.1-0.1,0.9-0.2,0.9c-0.1,0.1-0.1,0.1-0.3,0.2
				c-0.1,0-0.2,0.1-0.4,0.1c-0.2,0-0.3,0-0.4,0.1c0,0-0.1,0.1-0.1,0.2c0,0.1,0,0.2,0,0.2c0,0.1,0,0.2,0.1,0.3c0,0.1,0,0.2,0,0.3
				c0,0,0,0.2-0.1,0.4c-0.1,0.2-0.1,0.3,0,0.4c0,0,0.1,0.1,0.1,0.1s0.1,0.1,0.2,0.1c0.1,0,0.2,0,0.3,0.1c0.1,0,0.2,0,0.3,0.1
				c0.1,0,0.2,0,0.3,0.1c0.3,0.1,0.6,0.1,0.9,0.3c0.4,0.1,0.6,0.2,0.7,0.2c0.1,0,0.2,0,0.3-0.1c0.1-0.1,0.2-0.1,0.3-0.2
				c0.1-0.1,0.2-0.1,0.3-0.2c0.2-0.1,0.3-0.1,0.5-0.1c0.1,0,0.2,0,0.4,0c0.2,0,0.3,0,0.4,0c0.4,0,0.6,0,0.8,0c0.1,0,0.2,0,0.3,0.1
				s0.1,0.1,0.1,0.1c0,0,0.1,0.1,0.1,0.2c0,0.1,0.1,0.1,0.2,0.2c0.2,0.1,0.4,0.1,0.6,0.1s0.4-0.1,0.4-0.1c0.1-0.1,0.3-0.3,0.5-0.4
				c0.2-0.2,0.4-0.3,0.6-0.4c0,0,0.1,0,0.2-0.1c0.1,0,0.2-0.1,0.2-0.1c0.1,0,0.1-0.1,0.2-0.1c0.1,0,0.1-0.1,0.2-0.1
				c0,0,0.1-0.1,0.2-0.1c0.1,0,0.1-0.1,0.1-0.1c0,0,0-0.1,0-0.1c0,0,0-0.1-0.1-0.2C24.2,22,24.1,22,24,21.9z M20.8,15.8
				C20.8,15.8,20.8,15.8,20.8,15.8C20.8,15.8,20.8,15.8,20.8,15.8C20.8,15.9,20.8,15.9,20.8,15.8c0.1,0.1,0.1,0.1,0.1,0.1
				c0,0,0,0,0.1,0.1c0,0,0.1,0,0.1,0c0,0,0.1,0,0.1,0c0,0,0,0,0,0.1c0,0,0,0.1,0,0.1c0,0-0.1,0.1-0.1,0.1c-0.1,0-0.2-0.1-0.3-0.2
				C20.7,16,20.7,15.9,20.8,15.8z M20,13.3C20,13.3,20,13.3,20,13.3c0-0.1,0-0.1,0-0.1c0,0,0-0.1,0-0.1c0,0,0,0,0.1,0
				c0,0,0.1,0,0.2,0.1c0,0,0,0,0.1,0c0,0,0,0,0.1,0s0,0,0,0c0,0,0,0-0.1,0c0,0-0.1,0-0.1,0c0,0-0.1,0-0.1,0c0,0-0.1,0-0.1,0.1
				c0,0-0.1,0-0.1,0.1c0,0,0,0-0.1,0C19.9,13.4,19.9,13.4,20,13.3C19.9,13.4,19.9,13.4,20,13.3z M16.8,18.2
				C16.9,18.1,16.9,18.1,16.8,18.2c0.1-0.1,0.1-0.1,0.1-0.2c0,0,0-0.1,0-0.1c0,0,0,0,0,0c0,0,0,0,0,0c0,0,0,0,0,0s0,0,0,0
				c0,0,0,0,0,0c0,0,0,0,0,0c0,0,0,0,0,0s0,0,0,0C17,18.1,16.9,18.2,16.8,18.2C16.9,18.2,16.8,18.2,16.8,18.2
				C16.8,18.2,16.8,18.2,16.8,18.2z M21,21.7c0,0.2,0.1,0.4,0,0.5c0,0.1,0,0.3-0.1,0.6c0,0.2-0.1,0.4-0.1,0.5c-0.1,0-0.1,0-0.2-0.1
				s0-0.1,0-0.2c0.1-0.3,0.1-0.5,0.1-0.6c0-0.2,0-0.3-0.1-0.3c0,0-0.1,0-0.2,0.2c-0.2,0.3-0.6,0.5-1.1,0.6c-0.5,0.1-0.9,0-1.1-0.2
				c0,0-0.1,0-0.1,0c0,0-0.1,0-0.1,0.1c0,0,0,0,0,0c0,0,0,0,0.1,0.1c0,0,0.1,0.1,0.1,0.1c0.2,0.3,0.2,0.5,0,0.6c0-0.2,0-0.3,0-0.5
				c0-0.1-0.1-0.2-0.2-0.3c-0.1-0.1-0.2-0.2-0.2-0.3c0.1,0,0.2-0.1,0.3-0.1c0.1-0.1,0.1-0.2,0.1-0.3c0-0.1,0-0.2-0.1-0.2
				c0,0-0.2-0.2-0.6-0.5c-0.4-0.3-0.6-0.5-0.7-0.6c0,0-0.1-0.1-0.2-0.1c-0.1-0.1-0.1-0.1-0.2-0.2c-0.2-0.4-0.2-0.8-0.1-1.1l0,0
				c0,0,0,0,0,0.1c0,0.1,0,0.2,0,0.4c0,0.3,0.1,0.5,0.2,0.6c0.1,0.1,0.2,0.1,0.2,0c0,0,0-0.2,0-0.4c0-0.2,0-0.4,0-0.4
				c0-0.2,0.1-0.5,0.3-0.9c0.2-0.4,0.3-0.6,0.4-0.6c-0.1-0.1-0.1-0.3-0.1-0.4c0-0.1,0.1-0.3,0.1-0.4c0.1-0.1,0.1-0.2,0.2-0.4
				c0.1-0.1,0.1-0.3,0.1-0.4c0,0,0-0.1,0-0.1c0,0,0.1,0,0.2,0.1c0.2,0.3,0.3,0.4,0.4,0.5c0.1,0.1,0.2,0,0.3,0s0.3-0.1,0.4-0.3
				c0.2-0.1,0.3-0.2,0.4-0.3c0,0,0,0,0.1,0c0,0,0,0,0.1,0s0,0,0.1,0c0,0,0,0,0.1,0c0,0,0,0,0,0c0,0,0,0,0,0s0,0,0,0
				c0,0,0-0.1-0.1-0.1c0,0-0.1,0-0.1,0c0,0-0.1,0-0.2,0.1c-0.1,0-0.1,0.1-0.2,0.1c-0.1,0-0.1,0.1-0.2,0.1c-0.1,0-0.2,0.1-0.2,0.1
				c-0.1,0-0.2,0-0.2,0c-0.2,0-0.3,0-0.4-0.1c-0.1-0.1-0.1-0.1-0.1-0.1c0,0,0,0,0.1,0c0.2,0,0.4,0,0.5,0c0.1,0,0.3-0.1,0.5-0.1
				c0,0,0.1-0.1,0.3-0.1c0.2-0.1,0.3-0.1,0.4-0.1c0.1,0,0.1,0,0.1-0.1c0,0,0-0.1,0-0.1c0,0,0,0,0-0.1c0,0-0.1,0-0.1,0.1
				c0,0-0.1,0.1-0.1,0.1c-0.1,0-0.1,0.1-0.2,0.1c-0.1,0-0.1,0-0.2,0.1c-0.1,0-0.1,0-0.1,0c-0.2,0.1-0.5,0.1-0.7,0.1
				c-0.1,0-0.2,0-0.2,0c-0.1,0-0.1-0.1-0.1-0.1s-0.1-0.1-0.1-0.1s-0.1-0.1-0.2-0.1c0,0-0.1-0.1,0-0.1c0-0.1,0-0.1,0.1-0.2
				c0,0,0,0,0.1-0.1s0.1-0.1,0.2-0.2c0-0.1,0.1-0.1,0.2-0.2c0,0,0-0.1,0-0.1c0-0.1,0-0.2-0.1-0.3c0-0.1-0.1-0.1-0.2-0.1
				c-0.1,0-0.2,0-0.2,0.1c0,0.1-0.1,0.1-0.1,0.2c0,0.1,0,0.2,0.1,0.2s0.1,0.1,0.1,0.1c0,0,0.1,0,0,0.1c0,0-0.1,0.1-0.1,0.1
				c0,0-0.1,0-0.1-0.1c0-0.1-0.1-0.1-0.1-0.2c0-0.1,0-0.2,0-0.2c0-0.1,0-0.3,0.1-0.4s0.2-0.2,0.3-0.2c0.1,0,0.2,0.1,0.3,0.2
				c0.1,0.1,0.1,0.3,0.1,0.6c0,0,0,0,0.1,0c0.1,0,0.1,0,0.2,0c0.1,0,0.2,0,0.2,0.1c0,0,0,0,0-0.1c-0.1-0.5,0.1-0.8,0.6-0.9
				c0.1,0,0.1,0,0.2,0c0,0,0.1,0.1,0.2,0.1c0.1,0,0.1,0.1,0.1,0.2c0,0.1,0.1,0.2,0.1,0.3c0,0,0,0.1,0,0.2c0,0.1,0,0.2-0.1,0.2
				c-0.1,0-0.2,0-0.2,0c0,0,0-0.1,0-0.2c0-0.1,0-0.2,0-0.4c-0.1-0.1-0.2-0.2-0.3-0.2c-0.1,0-0.2,0.1-0.2,0.2c0,0.1-0.1,0.2-0.1,0.3
				c0,0.1,0,0.2,0.1,0.2c0,0,0.1,0,0.2,0.1c0.1,0.1,0.2,0.1,0.3,0.1c0.2,0,0.3,0.1,0.3,0.2c0,0.1,0,0.2,0,0.3s-0.1,0.3,0,0.3
				c0,0.1,0,0.2,0.1,0.3s0.1,0.1,0.2,0.2c0.1,0.1,0.1,0.2,0.2,0.4c0.1,0.2,0.1,0.4,0.2,0.7c0,0,0,0,0,0c0,0,0.1,0.1,0.1,0.1
				s0.1,0.1,0.1,0.2c0,0.1,0.1,0.2,0.1,0.3c0,0.1,0.1,0.3,0.1,0.4c0,0.2,0.1,0.4,0.1,0.7c0,0.3,0,0.4,0.1,0.5c0,0.1,0.1,0.1,0.2,0.1
				c0.2,0,0.3-0.1,0.3-0.3c0.1-0.5,0-1.1-0.3-1.8c-0.1-0.3-0.3-0.4-0.4-0.5c0.2,0.1,0.3,0.2,0.5,0.5c0.2,0.2,0.3,0.5,0.3,0.7
				c0,0,0,0.1,0,0.2c0,0.1,0,0.1,0,0.2c0,0,0,0.1,0,0.1c0,0.1,0,0.1,0,0.1c0,0,0,0.1,0,0.1c0,0.1,0,0.1,0,0.1c0,0,0,0.1,0,0.1
				c0,0.1,0,0.1,0,0.2c0,0.1,0,0.1,0,0.2c0.2,0.1,0.4,0.2,0.4,0.3c-0.1-0.1-0.2-0.1-0.4-0.1c-0.2,0-0.3,0-0.5,0.1
				c-0.1,0.1-0.2,0.2-0.2,0.3c-0.2,0-0.3,0-0.3,0.1C21,20.7,21,20.8,21,21C21,21.2,21,21.4,21,21.7z M18.3,14.7
				C18.3,14.7,18.3,14.6,18.3,14.7C18.3,14.6,18.3,14.6,18.3,14.7c0.1-0.1,0.1,0,0.1,0c0,0.1,0,0.1,0,0.2c0,0,0,0,0,0
				C18.4,14.9,18.4,14.8,18.3,14.7C18.4,14.7,18.4,14.7,18.3,14.7z M20,14.8L20,14.8C20,14.8,20,14.8,20,14.8
				c-0.1-0.1-0.1-0.2-0.2-0.2c0,0,0,0,0,0c0,0,0,0,0,0c0,0,0,0,0.1,0c0,0,0,0,0.1,0.1C20,14.7,20,14.7,20,14.8z"/>
		</g>
		<rect x="19.7" y="12.9" class="st2" width="0.7" height="0.7"/>
		<rect x="20.6" y="15.7" class="st2" width="0.6" height="0.7"/>
		<rect x="16.7" y="17.8" class="st2" width="0.3" height="0.5"/>
	</g>
</g>
</svg>
