<?xml version="1.0" encoding="utf-8"?>
<!-- Generator: Adobe Illustrator 26.0.1, SVG Export Plug-In . SVG Version: 6.00 Build 0)  -->
<svg version="1.1" id="Calque_1" xmlns="http://www.w3.org/2000/svg" xmlns:xlink="http://www.w3.org/1999/xlink" x="0px" y="0px"
	 viewBox="0 0 512 513" style="enable-background:new 0 0 512 513;" xml:space="preserve">
<style type="text/css">
	.st0{fill:#c37837;}
	.st1{fill:#57727F;}
	.st2{fill:#FFFFFF;}
</style>
<rect x="33.7" y="71.7" class="st0" width="183.7" height="44.6"/>
<rect x="8.7" y="115.2" class="st1" width="493.4" height="326.1"/>
<path class="st2" d="M330.5,342.6l-36.3-36.3c8.2-12.2,12.3-27.5,10.1-43.9c-3.7-27.7-26.5-50.3-54.2-53.8
	c-41.3-5.2-76,29.5-70.7,70.7c3.5,27.8,26.1,50.5,53.8,54.2c16.3,2.2,31.6-1.9,43.9-10.1l36.3,36.3c4.7,4.7,12.4,4.7,17.1,0
	C335.2,355,335.2,347.3,330.5,342.6z M266.1,278.5h-17.2v17c0,4-3.3,7.3-7,7.3c-4,0-7.3-3.2-7.3-7.3v-17h-17.2c-3.8,0-7-3.2-7-7.3
	s3.3-7.3,7-7.3h17.2v-17c0-4,3.3-7.3,7-7.3c3.7,0,7.3,3.2,7.3,7.3v17h17c4.3,0,7.5,3.2,7.5,7.3S270.1,278.5,266.1,278.5z"/>
</svg>
