<?xml version="1.0" encoding="utf-8"?>
<!-- Generator: Adobe Illustrator 26.0.1, SVG Export Plug-In . SVG Version: 6.00 Build 0)  -->
<svg version="1.1" id="Calque_1" xmlns="http://www.w3.org/2000/svg" xmlns:xlink="http://www.w3.org/1999/xlink" x="0px" y="0px"
	 viewBox="0 0 512 513" style="enable-background:new 0 0 512 513;" xml:space="preserve">
<style type="text/css">
	.st0{fill:#c37837;}
	.st1{fill:#57727F;}
	.st2{fill:#EEEFEF;}
	.st3{fill:#FFFFFF;stroke:#FFFFFF;stroke-miterlimit:10;}
</style>
<rect x="33.7" y="71.7" class="st0" width="183.7" height="44.6"/>
<rect x="8.7" y="114.5" class="st1" width="493.4" height="326.1"/>
<path class="st2" d="M0,0"/>
<path class="st3" d="M190.6,260.9c0-0.8-0.1-1.6-0.1-2.4c0-26.2,21.3-47.5,47.5-47.5c17.6,0,33,9.6,41.2,23.8
	c4.5-3.3,10-4.8,15.8-4.8c15.7,0,28.5,12.5,28.5,28.5c0,3.6-0.7,7.1-1.9,10.3c17.3,3.5,30.4,18.9,30.4,37.2c0,21-17,38-38,38H204.8
	c-23.6,0-42.8-19.1-42.8-42.8C162,282.6,173.9,266.8,190.6,260.9z"/>
</svg>
