<?xml version="1.0" encoding="utf-8"?>
<!-- Generator: Adobe Illustrator 26.0.1, SVG Export Plug-In . SVG Version: 6.00 Build 0)  -->
<svg version="1.1" id="Calque_1" xmlns="http://www.w3.org/2000/svg" xmlns:xlink="http://www.w3.org/1999/xlink" x="0px" y="0px"
	 viewBox="0 0 512 513" style="enable-background:new 0 0 512 513;" xml:space="preserve">
<style type="text/css">
	.st0{fill:#c37837;}
	.st1{fill:#57727F;}
	.st2{fill:#FFFFFF;}
</style>
<rect x="33.7" y="71.7" class="st0" width="183.7" height="44.6"/>
<rect x="8.7" y="115.2" class="st1" width="493.4" height="326.1"/>
<path class="st2" d="M247,248.4c0.4,2.4,0.6,4.8,0.6,7c0,2.8-0.2,5.2-0.6,7.6l7.8,6.9c2.4,2.2,3.5,5.4,2.2,8.7
	c-0.8,1.5-1.7,3.7-2.7,5.4l-1.1,1.9c-1.4,1.7-2.2,3.4-3.4,5.1c-2,2.7-5.5,3.5-8.6,2.5l-9.9-3.3c-3.7,3.1-8,5.6-12.7,7.3l-2.4,10.1
	c-0.4,3.3-2.9,5.8-6.2,6.3c-2.3,0.3-4.7,0.4-7.1,0.4c-2.4,0-4.8-0.1-7.1-0.4c-3.3-0.4-6.1-3-6.5-6.3l-2.4-10.1
	c-4.3-1.7-8.6-4.2-12.4-7.3l-9.9,3.3c-3.1,1-6.6,0.2-8.6-2.5c-1.2-1.6-2.4-3.4-3.5-5.1l-1.1-1.9c-1-1.7-1.9-3.6-2.7-5.4
	c-1.3-3.4-0.3-6.5,2.2-8.7l7.8-6.9c-0.4-2.4-0.9-4.8-0.9-7.6c0-2.2,0.5-4.6,0.9-7l-7.8-6.9c-2.5-2.5-3.5-5.7-2.2-8.7
	c0.8-2.2,1.7-3.7,2.7-5.4l1.1-1.8c1.1-1.8,2.2-3.5,3.5-5.1c2-2.6,5.5-3.5,8.6-2.5l9.9,3.3c3.8-3.1,8-5.6,12.4-7.3l2.4-10.2
	c0.4-3.2,3.2-5.8,6.5-6.2c2.3-0.3,4.7-0.4,7.1-0.4c2.4,0,4.8,0.1,7.1,0.4c3.3,0.4,5.8,3,6.2,6.2l2.4,10.2c4.6,1.7,8.9,4.2,12.7,7.3
	l9.9-3.3c3.1-1,6.6-0.2,8.6,2.5c1.2,1.6,2.1,3.3,3.4,5.1l1.1,1.9c1,1.8,1.9,3.6,2.7,5.4c1.3,3,0.3,6.2-2.2,8.7L247,248.4z
	 M202.9,238.6c-9.3,0-16.8,7.8-16.8,16.8c0,9.6,7.5,16.8,16.8,16.8c9.3,0,16.8-7.2,16.8-16.8C219.6,246.5,212.1,238.6,202.9,238.6z
	 M316.4,361.4c-2.4,0.4-4.8,0.6-7.3,0.6s-4.9-0.2-7.3-0.6l-6.9,7.8c-2.5,2.4-5.7,3.5-8.7,2.2c-1.9-0.8-3.7-1.7-5.4-2.7l-1.9-1.1
	c-1.7-1.4-3.4-2.2-5.1-3.4c-2.7-2-3.5-5.5-2.5-8.6l3.3-9.9c-3.1-3.7-5.6-8-7.3-12.7l-10.1-2.4c-3.3-0.4-5.8-2.9-6.3-6.2
	c-0.3-2.3-0.4-4.7-0.4-7.1s0.1-4.8,0.4-7.1c0.4-3.3,3-6.1,6.3-6.5l10.1-2.4c1.7-4.3,4.2-8.6,7.3-12.3l-3.3-9.9
	c-1-3.1-0.2-6.6,2.5-8.6c1.6-1.2,3.4-2.7,5.1-3.5l1.9-1c1.7-1,3.3-1.9,5.4-2.7c3-1.3,6.2-0.3,8.7,2.2l6.9,7.8
	c2.4-0.4,4.8-0.6,7.3-0.6s4.9,0.2,7.3,0.6l6.9-7.8c2.2-2.4,5.4-3.5,8.7-2.2c1.9,0.8,3.7,1.7,5.4,2.7l1.9,1c1.7,0.8,3.5,2.2,5.1,3.5
	c2.7,2,3.5,5.5,2.5,8.6l-3.3,9.9c3.1,3.7,5.6,8,7.3,12.3l10.1,2.4c3.3,0.4,5.8,3.2,6.3,6.5c0.3,2.3,0.4,4.7,0.4,7.1
	s-0.1,4.8-0.4,7.1c-0.4,3.3-3,5.8-6.3,6.2l-10.1,2.4c-1.7,4.6-4.2,8.9-7.3,12.7l3.3,9.9c1,3.1,0.2,6.6-2.5,8.6
	c-1.6,1.2-3.3,2.1-5.1,3.4l-1.9,1.1c-1.7,1-3.9,1.9-5.4,2.7c-3.4,1.3-6.5,0.3-8.7-2.2L316.4,361.4z M325.9,317.3
	c0-9.3-7.5-16.8-16.8-16.8c-9.3,0-16.8,7.5-16.8,16.8s7.5,16.8,16.8,16.8C318.4,334,325.9,326.5,325.9,317.3z"/>
</svg>
