<?xml version="1.0" encoding="utf-8"?>
<!-- Generator: Adobe Illustrator 26.0.1, SVG Export Plug-In . SVG Version: 6.00 Build 0)  -->
<svg version="1.1" id="Calque_1" xmlns="http://www.w3.org/2000/svg" xmlns:xlink="http://www.w3.org/1999/xlink" x="0px" y="0px"
	 viewBox="0 0 512 513" style="enable-background:new 0 0 512 513;" xml:space="preserve">
<style type="text/css">
	.st0{fill:#f10a0a;}
	.st1{fill:#d00b0b;}
	.st2{fill:#FFFFFF;}
</style>
<rect x="33.7" y="71.7" class="st0" width="183.7" height="44.6"/>
<rect x="8.7" y="115.2" class="st1" width="493.4" height="326.1"/>
<path class="st2" d="M256,300.5c17.2,0,30.9-14,30.9-31.2c0-17.2-14-31.2-30.9-31.2c-17.2,0-30.9,14-30.9,31.2
	C224.8,286.5,238.8,300.5,256,300.5z M271,310.1H241c-23.6,0-42.6,17.9-42.6,40c0,4.4,3.8,8,8.5,8h98.2c4.7,0,8.5-3.6,8.5-8
	C313.6,328,294.5,310.1,271,310.1z M313.6,252.5c13.3,0,24-10.7,24-24s-10.7-24-24-24c-13.3,0-24,10.7-24,24
	S300.3,252.5,313.6,252.5z M215.2,269.3c0-1.6,0.3-3.2,0.5-4.8c-3.3-1.8-6.9-2.4-10.7-2.4h-18.5c-14.6,0-26.4,12.5-26.4,28
	c0,3.1,2.4,5.6,5.3,5.6h59.9C219,288.6,215.2,279.4,215.2,269.3z M198.4,252.5c13.3,0,24-10.7,24-24s-10.7-24-24-24
	c-13.3,0-24,10.7-24,24S185.1,252.5,198.4,252.5z M325.6,262.1H307c-3.8,0-7.5,0.9-10.8,2.5c0.2,1.6,0.5,3.1,0.5,4.7
	c0,10.1-3.8,19.3-9.9,26.4h59.9c2.9,0,5.3-2.5,5.3-5.6C352,274.6,340.2,262.1,325.6,262.1z"/>
</svg>
