<?xml version="1.0" encoding="utf-8"?>
<!-- Generator: Adobe Illustrator 26.0.1, SVG Export Plug-In . SVG Version: 6.00 Build 0)  -->
<svg version="1.1" id="Calque_1" xmlns="http://www.w3.org/2000/svg" xmlns:xlink="http://www.w3.org/1999/xlink" x="0px" y="0px"
	 viewBox="0 0 512 513" style="enable-background:new 0 0 512 513;" xml:space="preserve">
<style type="text/css">
	.st0{fill:#0ef3ff;}
	.st1{fill:#0dcfd9;}
	.st2{fill:#FFFFFF;}
</style>
<rect x="33.7" y="71.7" class="st0" width="183.7" height="44.6"/>
<rect x="9.8" y="115.2" class="st1" width="493.4" height="326.1"/>
<path class="st2" d="M221.9,274.7c0-10.6,8.6-19.3,19.3-19.3s19.3,8.6,19.3,19.3s-8.6,19.3-19.3,19.3S221.9,285.3,221.9,274.7z
	 M310.5,216.9c8.5,0,15.4,6.9,15.4,15.4V317c0,8.5-6.9,15.4-15.4,15.4h-3.9l-3.9,7.7h-15.4l-3.9-7.7h-53.9l-3.9,7.7h-15.4l-3.9-7.7
	h-3.9c-8.5,0-15.4-6.9-15.4-15.4v-84.7c0-8.5,6.9-15.4,15.4-15.4H310.5z M241.1,313.2c21.3,0,38.5-17.2,38.5-38.5
	s-17.2-38.5-38.5-38.5s-38.5,17.2-38.5,38.5S219.9,313.2,241.1,313.2z M302.8,270.2c4.5-1.6,7.7-5.9,7.7-10.9
	c0-6.4-5.2-11.6-11.6-11.6c-6.4,0-11.6,5.2-11.6,11.6c0,5,3.2,9.3,7.7,10.9v27.6c0,2.1,1.7,3.9,3.9,3.9c2.1,0,3.9-1.7,3.9-3.9V270.2
	z"/>
</svg>
