<?xml version="1.0" encoding="utf-8"?>
<!-- Generator: Adobe Illustrator 26.0.1, SVG Export Plug-In . SVG Version: 6.00 Build 0)  -->
<svg version="1.1" id="Calque_1" xmlns="http://www.w3.org/2000/svg" xmlns:xlink="http://www.w3.org/1999/xlink" x="0px" y="0px"
	 viewBox="0 0 512 513" style="enable-background:new 0 0 512 513;" xml:space="preserve">
<style type="text/css">
	.st0{fill:#0ef3ff;}
	.st1{fill:#0dcfd9;}
	.st2{fill:#FFFFFF;stroke:#FFFFFF;stroke-miterlimit:10;}
</style>
<rect x="33.7" y="71.7" class="st0" width="183.7" height="44.6"/>
<rect x="8.7" y="115.2" class="st1" width="493.4" height="326.1"/>
<path class="st2" d="M327.6,311c0,12.6-12.2,22.7-27,22.7s-27-10.2-27-22.5c0-12.6,12.2-22.5,27-22.5c3.2,0,6.2,0.5,9.1,1.4v-41.4
	l-72.8,21.6l0,59.2c-0.3,12.5-12.2,22.7-27.5,22.7s-27-10.2-27-22.7c0-12.6,12.2-22.5,27-22.5c3.2,0,6.2,0.5,9.1,1.4v-65.8
	c0-3.7,2.9-7.6,6.4-8.7l90.7-26.9c1-0.2,2.5-0.4,3.2-0.4c5,0,9.1,4.1,9.1,9.1L327.6,311z"/>
</svg>
