<?xml version="1.0" encoding="utf-8"?>
<!-- Generator: Adobe Illustrator 26.0.1, SVG Export Plug-In . SVG Version: 6.00 Build 0)  -->
<svg version="1.1" id="Calque_1" xmlns="http://www.w3.org/2000/svg" xmlns:xlink="http://www.w3.org/1999/xlink" x="0px" y="0px"
	 viewBox="0 0 512 513" style="enable-background:new 0 0 512 513;" xml:space="preserve">
<style type="text/css">
	.st0{fill:#0fe2ed;}
	.st1{fill:#0dcfd9;}
	.st2{fill:#FFFFFF;}
</style>
<rect x="33.7" y="71.7" class="st0" width="183.7" height="44.6"/>
<rect x="8.7" y="115.2" class="st1" width="493.4" height="326.1"/>
<path class="st2" d="M201.8,347.7c-24.5,0-44.3-19.8-44.3-44.3c0-19.3,12.4-35.7,29.6-41.8c0-0.8-0.1-1.7-0.1-2.5
	c0-27.2,22-49.2,49.2-49.2c18.2,0,34.1,9.9,42.7,24.7c4.7-3.4,10.3-5,16.4-5c16.3,0,29.5,12.9,29.5,29.5c0,3.8-0.7,7.3-2,10.6
	c18,3.6,31.5,19.5,31.5,38.6c0,21.7-17.6,39.4-39.4,39.4H201.8z M250.7,320.7c2.9,3.1,7.6,3.1,10.2,0l24.6-24.6
	c3.1-2.6,3.1-7.3,0-10.2c-2.6-2.9-7.3-2.9-10.2,0l-12,12v-41.2c0-4.1-3.3-7.4-7.4-7.4c-4.1,0-7.4,3.3-7.4,7.4v41.2l-12.3-12
	c-2.6-2.9-7.3-2.9-10.2,0c-2.9,2.9-2.9,7.6,0,10.2L250.7,320.7z"/>
</svg>
