<?xml version="1.0" encoding="utf-8"?>
<!-- Generator: Adobe Illustrator 26.0.1, SVG Export Plug-In . SVG Version: 6.00 Build 0)  -->
<svg version="1.1" id="Calque_1" xmlns="http://www.w3.org/2000/svg" xmlns:xlink="http://www.w3.org/1999/xlink" x="0px" y="0px"
	 viewBox="0 0 512 513" style="enable-background:new 0 0 512 513;" xml:space="preserve">
<style type="text/css">
	.st0{fill:#008ad6;}
	.st1{fill:#57727F;}
	.st2{fill:#FFFFFF;}
</style>
<rect x="33.7" y="71.7" class="st0" width="183.7" height="44.6"/>
<rect x="8.7" y="115.2" class="st1" width="493.4" height="326.1"/>
<path class="st2" d="M315.3,212H195c-10.8,0-19.8,9-19.8,20v100.2c0,11.1,9,20,19.8,20h120.2c11.1,0,20-9,20-20V232
	C335.3,221,326.6,212,315.3,212z M210.1,232c8.3,0,15,6.7,15,15c0,8.3-6.4,15-15,15c-8.6,0-15-6.7-15-15S202,232,210.1,232z
	 M315,329.6c-0.9,1.6-2.6,2.6-4.4,2.6H201c-1.9,0-3.6-1.1-4.5-2.7c-0.9-1.7-0.7-3.7,0.4-5.2l21.9-30.1c0.9-1.3,2.4-2.1,4-2.1
	s3.1,0.8,4,2.1l10.2,13.9l29.2-43.5c0.9-1.7,2.5-2.5,4.2-2.5c1.7,0,3.2,0.8,4.2,2.2l40.1,60.1C315.7,326,315.8,327.9,315,329.6z"/>
</svg>
