<?xml version="1.0" encoding="utf-8"?>
<!-- Generator: Adobe Illustrator 26.0.1, SVG Export Plug-In . SVG Version: 6.00 Build 0)  -->
<svg version="1.1" id="Calque_1" xmlns="http://www.w3.org/2000/svg" xmlns:xlink="http://www.w3.org/1999/xlink" x="0px" y="0px"
	 viewBox="0 0 512 513" style="enable-background:new 0 0 512 513;" xml:space="preserve">
<style type="text/css">
	.st0{fill:#0fe2ed;}
	.st1{fill:#0dcfd9;}
	.st2{fill:#FFFFFF;}
</style>
<rect x="33.7" y="71.7" class="st0" width="445.5" height="44.6"/>
<rect x="8.7" y="115.2" class="st1" width="493.4" height="326.1"/>
<path class="st2" d="M200.6,290.4h106.8c12.7,0,19.3-15.1,10.8-24.4l-53.3-58.4c-5.8-6.3-15.7-6.3-21.5,0l-53.5,58.7
	C181.3,275.5,187.9,290.4,200.6,290.4z M307.4,310.1H200.6c-8,0-14.6,6.6-14.6,14.6c0,8,6.6,14.6,14.6,14.6h106.8
	c8,0,14.6-6.6,14.6-14.6C322,316.7,315.7,310.1,307.4,310.1z"/>
</svg>
