<?xml version="1.0" encoding="utf-8"?>
<!-- Generator: Adobe Illustrator 26.0.1, SVG Export Plug-In . SVG Version: 6.00 Build 0)  -->
<svg version="1.1" id="Calque_1" xmlns="http://www.w3.org/2000/svg" xmlns:xlink="http://www.w3.org/1999/xlink" x="0px" y="0px"
	 viewBox="0 0 512 513" style="enable-background:new 0 0 512 513;" xml:space="preserve">
<style type="text/css">
	.st0{fill:#0ef3ff;}
	.st1{fill:#0dcfd9;}
	.st2{fill:#FFFFFF;}
</style>
<rect x="33.7" y="71.7" class="st0" width="183.7" height="44.6"/>
<rect x="8.7" y="115.2" class="st1" width="493.4" height="326.1"/>
<path class="st2" d="M343,229.4c0,20.9-16.7,37.3-37.3,37.3c-10.1,0-19.2-3.6-25.9-10.1l-36.5,18.3c0.2,1.5-0.1,2.7-0.1,4.6
	c0,1.6,0.3,2.8,0.1,4.6l36.5,18.3c6.7-6.5,15.8-10.4,25.9-10.4c20.6,0,37.3,16.4,37.3,37.3c0,20.6-16.7,37.3-37.3,37.3
	c-20.9,0-37.3-16.7-37.3-37.3c0-1.9,0.1-3.1,0.3-4.6l-36.5-18.3c-6.7,6.5-15.8,10.4-25.9,10.4c-20.6,0-37.3-16.7-37.3-37.3
	c0-20.9,16.7-37.3,37.3-37.3c10.1,0,19.2,4,25.9,10.4l36.5-18.3c-0.2-1.9-0.3-3.1-0.3-4.6c0-20.6,16.4-37.3,37.3-37.3
	c20.6,0,37.3,16.7,37.3,37.3V229.4z M205.9,291.6c7.2,0,12.4-5.2,12.4-12.4c0-6.5-5.2-12.4-12.4-12.4c-6.5,0-12.4,5.9-12.4,12.4
	C193.5,286.4,199.4,291.6,205.9,291.6z M305.7,217c-6.9,0-12.4,5.9-12.4,12.4c0,7.2,5.6,12.4,12.4,12.4c6.9,0,12.4-5.2,12.4-12.4
	C318.1,222.9,312.6,217,305.7,217z M305.7,341.6c6.9,0,12.4-5.6,12.4-12.4c0-6.9-5.6-12.4-12.4-12.4c-6.9,0-12.4,5.6-12.4,12.4
	C293.3,336.1,298.8,341.6,305.7,341.6z"/>
</svg>
