<?xml version="1.0" encoding="utf-8"?>
<!-- Generator: Adobe Illustrator 26.0.1, SVG Export Plug-In . SVG Version: 6.00 Build 0)  -->
<svg version="1.1" id="Calque_1" xmlns="http://www.w3.org/2000/svg" xmlns:xlink="http://www.w3.org/1999/xlink" x="0px" y="0px"
	 viewBox="0 0 512 513" style="enable-background:new 0 0 512 513;" xml:space="preserve">
<style type="text/css">
	.st0{fill:#dbac1d;}
	.st1{fill:#bb9318;}
	.st2{fill:#FFFFFF;}
</style>
<rect x="33.7" y="71.7" class="st0" width="183.7" height="44.6"/>
<rect x="8.7" y="115.2" class="st1" width="493.4" height="326.1"/>
<path class="st2" d="M310.4,261.4H201.6c-10,0-18.1,8.1-18.1,18.1v27.2c0,5,4.1,9.1,9.1,9.1h9.1v27.2c0,5,4.1,9.1,9.1,9.1h90.6
	c5,0,9.1-4.1,9.1-9.1v-27.2h9.1c5,0,9.1-4.1,9.1-9.1v-27.2C328.5,269.5,320.4,261.4,310.4,261.4z M292.2,333.9h-72.5v-27.2h72.5
	V333.9z M305.8,290.8c-3.8,0-6.8-3-6.8-6.8c0-3.8,3-6.8,6.8-6.8s6.8,3,6.8,6.8C312.6,287.8,309.6,290.8,305.8,290.8z M219.8,225.1
	h65l7.5,7.5v19.7h18.1v-23.4c0-2.4-1-4.7-2.7-6.4l-12.8-12.8c-1.7-1.7-4-2.7-6.4-2.7h-77.8c-5,0-9.1,4.1-9.1,9.1v36.2h18.1V225.1z"
	/>
</svg>
