<?xml version="1.0" encoding="utf-8"?>
<!-- Generator: Adobe Illustrator 26.0.1, SVG Export Plug-In . SVG Version: 6.00 Build 0)  -->
<svg version="1.1" id="Calque_1" xmlns="http://www.w3.org/2000/svg" xmlns:xlink="http://www.w3.org/1999/xlink" x="0px" y="0px"
	 viewBox="0 0 512 513" style="enable-background:new 0 0 512 513;" xml:space="preserve">
<style type="text/css">
	.st0{fill:#dbac1d;}
	.st1{fill:#bb9318;}
	.st2{fill:#FFFFFF;}
</style>
<rect x="33.7" y="71.7" class="st0" width="183.7" height="44.6"/>
<rect x="8.7" y="115.2" class="st1" width="493.4" height="326.1"/>
<path class="st2" d="M268.9,211.3v36.9h36.9L268.9,211.3z M259.7,248.2v-36.9H209c-7.6,0-13.8,6.2-13.8,13.8v119.9
	c0,7.6,6.2,13.8,13.8,13.8h83c7.6,0,13.8-6.2,13.8-13.8v-87.6h-36.6C263.8,257.5,259.7,253.3,259.7,248.2z M273.5,331.2h-46.1
	c-2.5,0-4.6-2.1-4.6-4.6c0-2.5,2.1-4.6,4.6-4.6h46.1c2.5,0,4.6,2.1,4.6,4.6C278.1,329.2,276.1,331.2,273.5,331.2z M273.5,312.8
	h-46.1c-2.5,0-4.6-2.1-4.6-4.6s2.1-4.6,4.6-4.6h46.1c2.5,0,4.6,2.1,4.6,4.6C278.1,310.7,276.1,312.8,273.5,312.8z M278.1,289.7
	c0,2.5-2.1,4.6-4.6,4.6h-46.1c-2.5,0-4.6-2.1-4.6-4.6s2.1-4.6,4.6-4.6h46.1C276.1,285.1,278.1,287.2,278.1,289.7z"/>
</svg>
