<?xml version="1.0" encoding="utf-8"?>
<!-- Generator: Adobe Illustrator 26.0.1, SVG Export Plug-In . SVG Version: 6.00 Build 0)  -->
<svg version="1.1" id="Calque_1" xmlns="http://www.w3.org/2000/svg" xmlns:xlink="http://www.w3.org/1999/xlink" x="0px" y="0px"
	 viewBox="0 0 512 513" style="enable-background:new 0 0 512 513;" xml:space="preserve">
<style type="text/css">
	.st0{fill:#28b1ff;}
	.st1{fill:#2778ff;}
	.st2{fill:#FFFFFF;}
</style>
<rect x="33.7" y="71.7" class="st0" width="183.7" height="44.6"/>
<rect x="8.7" y="115.2" class="st1" width="493.4" height="326.1"/>
<path class="st2" d="M324.4,308.7h-42l-14.2,14.2c-3.8,3.8-8.9,5.9-14.2,5.9c-5.4,0-10.4-2.1-14.2-5.9l-14.2-14.2h-42
	c-5.6,0-10.1,4.5-10.1,10.1v30.2c0,5.6,4.5,10.1,10.1,10.1h140.9c5.6,0,10.1-4.5,10.1-10.1v-30.2C334.5,313.2,330,308.7,324.4,308.7
	z M309.3,341.4c-4.2,0-7.5-3.4-7.5-7.5s3.4-7.5,7.5-7.5s7.5,3.4,7.5,7.5S313.5,341.4,309.3,341.4z M246.9,315.8c1.9,2,4.5,3,7.1,3
	s5.2-1,7.1-2.9l40.2-40.2c3.9-3.9,3.9-10.3,0-14.2c-3.9-3.9-10.3-3.9-14.2,0l-23.1,23.1v-76.3c0-5.6-4.5-10.1-10.1-10.1
	c-5.6,0-10.1,4.5-10.1,10.1v76.3l-23.1-23.1c-3.9-3.9-10.3-3.9-14.2,0c-3.9,3.9-3.9,10.3,0,14.2L246.9,315.8z"/>
</svg>
