<?xml version="1.0" encoding="utf-8"?>
<!-- Generator: Adobe Illustrator 26.0.1, SVG Export Plug-In . SVG Version: 6.00 Build 0)  -->
<svg version="1.1" id="Calque_1" xmlns="http://www.w3.org/2000/svg" xmlns:xlink="http://www.w3.org/1999/xlink" x="0px" y="0px"
	 viewBox="0 0 512 513" style="enable-background:new 0 0 512 513;" xml:space="preserve">
<style type="text/css">
	.st0{fill:#09bdc8;}
	.st1{fill:#0198a1;}
	.st2{fill:#FFFFFF;}
</style>
<rect x="33.7" y="71.7" class="st0" width="183.7" height="44.6"/>
<rect x="8.7" y="115.2" class="st1" width="493.4" height="326.1"/>
<path class="st2" d="M308.3,327.7l-46.7-112c-1.4-3.5-4.8-5.7-8.6-5.7c-3.8,0-7.2,2.3-8.6,5.7l-46.7,112c-2,4.8,0.3,10.2,5,12.2
	c4.8,2,10.2-0.3,12.2-5l9.3-22.3h57.6l9.3,22.3c1.5,3.6,5,5.7,8.6,5.7c1.2,0,2.4-0.2,3.6-0.7C308,338,310.3,332.5,308.3,327.7z
	 M231.7,294l21.3-50.4l21,50.4H231.7z"/>
</svg>
