<?xml version="1.0" encoding="utf-8"?>
<!-- Generator: Adobe Illustrator 26.0.1, SVG Export Plug-In . SVG Version: 6.00 Build 0)  -->
<svg version="1.1" id="Calque_1" xmlns="http://www.w3.org/2000/svg" xmlns:xlink="http://www.w3.org/1999/xlink" x="0px" y="0px"
	 viewBox="0 0 512 513" style="enable-background:new 0 0 512 513;" xml:space="preserve">
<style type="text/css">
	.st0{fill:#0198a1;}
	.st1{fill:#044a49;}
	.st2{fill:#FFFFFF;}
</style>
<rect x="33.7" y="71.7" class="st0" width="183.7" height="44.6"/>
<rect x="8.7" y="115.2" class="st1" width="493.4" height="326.1"/>
<path class="st2" d="M179,222.9c0-9.7,7.9-17.6,17.6-17.6h44.1v35.3c0,4.9,3.9,8.8,8.8,8.8h35.3V260c-20.4,5.8-35.3,24.5-35.3,46.7
	c0,16.3,8,30.7,20.3,39.5c-0.9,0.1-1.8,0.2-2.7,0.2h-70.5c-9.7,0-17.6-7.9-17.6-17.6V222.9z M249.5,240.5v-35.3l35.3,35.3H249.5z
	 M258.3,306.6c0-21.9,17.8-39.7,39.7-39.7s39.7,17.8,39.7,39.7c0,21.9-17.8,39.7-39.7,39.7S258.3,328.5,258.3,306.6z M302.4,288.8
	c0-2.2-2-4.4-4.4-4.4s-4.4,2.2-4.4,4.4V302h-13.2c-2.4,0-4.4,2.2-4.4,4.4c0,2.7,2,4.4,4.4,4.4h13.2V324c0,2.7,2,4.4,4.4,4.4
	s4.4-1.7,4.4-4.4v-13.2h13.2c2.4,0,4.4-1.7,4.4-4.4c0-2.2-2-4.4-4.4-4.4h-13.2V288.8z"/>
</svg>
