<?xml version="1.0" encoding="utf-8"?>
<!-- Generator: Adobe Illustrator 26.0.1, SVG Export Plug-In . SVG Version: 6.00 Build 0)  -->
<svg version="1.1" id="Calque_1" xmlns="http://www.w3.org/2000/svg" xmlns:xlink="http://www.w3.org/1999/xlink" x="0px" y="0px"
	 viewBox="0 0 512 513" style="enable-background:new 0 0 512 513;" xml:space="preserve">
<style type="text/css">
	.st0{fill:#06bcc7;}
	.st1{fill:#0198a1;}
	.st2{fill:#FFFFFF;}
</style>
<rect x="33.7" y="71.7" class="st0" width="183.7" height="44.6"/>
<rect x="8.7" y="115.2" class="st1" width="493.4" height="326.1"/>
<path class="st2" d="M256.7,309.5c-11.1,0-20.2,9-20.2,20.2c0,11.1,9,20.2,20.2,20.2s20.2-9,20.2-20.2
	C276.9,318.5,268.1,309.5,256.7,309.5z M257,259.1c-22.1,0-43.4,8.1-60,22.7c-4.2,4-4.6,10.3-0.9,14.5c3.7,4.2,10.1,4.6,14.2,0.9
	c12.9-11.4,29.4-17.6,46.6-17.6s33.8,6.3,46.6,17.6c1.9,1.7,4.3,2.5,6.7,2.5c2.8,0,5.6-1.2,7.6-3.4c3.7-4.2,3.3-10.5-0.9-14.2
	C300.4,267.4,279.1,259.1,257,259.1z M354.7,248.3C328.3,222.9,293.6,209,257,209s-71.3,13.9-97.7,39.3c-4,3.9-4.1,10.2-0.3,14.2
	c3.8,4,10.2,4.1,14.2,0.3c22.3-22,52.3-33.7,83.7-33.7s60.8,12,83.7,33.7c2,1.9,4.5,2.8,7,2.8c2.6,0,5.3-1,7.3-3.1
	C358.8,258.5,358.7,251.9,354.7,248.3z"/>
</svg>
